HIERARCHY
ROOT joint_Root
{
	OFFSET 0.0 0.0 0.0
	CHANNELS 6 Xposition Yposition Zposition Zrotation Xrotation Yrotation 
	JOINT Hips
	{
		OFFSET 4.5925 91.4895 -427.239
		CHANNELS 6 Xposition Yposition Zposition Zrotation Xrotation Yrotation 
		JOINT Spine
		{
			OFFSET 15.7357 0.0 0.0
			CHANNELS 6 Xposition Yposition Zposition Zrotation Xrotation Yrotation 
			JOINT Chest
			{
				OFFSET 8.98455 -0.406207 0.0
				CHANNELS 6 Xposition Yposition Zposition Zrotation Xrotation Yrotation 
				JOINT Neck
				{
					OFFSET 16.3773 0.0 0.0
					CHANNELS 6 Xposition Yposition Zposition Zrotation Xrotation Yrotation 
					JOINT Head
					{
						OFFSET 6.45672 0.0 0.0
						CHANNELS 6 Xposition Yposition Zposition Zrotation Xrotation Yrotation 
						End Site
						{
							OFFSET 0.0 0.0 0.0
						}
					}
				}
				JOINT Shoulder_L
				{
					OFFSET 12.9942 -0.242716 4.98039
					CHANNELS 6 Xposition Yposition Zposition Zrotation Xrotation Yrotation 
					JOINT UpperArm_L
					{
						OFFSET 5.34809 0.0 0.0
						CHANNELS 6 Xposition Yposition Zposition Zrotation Xrotation Yrotation 
						JOINT LowerArm_L
						{
							OFFSET 24.3286 1.87007e-05 0.0
							CHANNELS 6 Xposition Yposition Zposition Zrotation Xrotation Yrotation 
							JOINT Hand_L
							{
								OFFSET 22.2916 0.0 0.0
								CHANNELS 6 Xposition Yposition Zposition Zrotation Xrotation Yrotation 
								End Site
								{
									OFFSET 0.0 0.0 0.0
								}
							}
						}
					}
				}
				JOINT Shoulder_R
				{
					OFFSET 12.9945 -0.242716 -4.98039
					CHANNELS 6 Xposition Yposition Zposition Zrotation Xrotation Yrotation 
					JOINT UpperArm_R
					{
						OFFSET -5.34813 0.0 0.0
						CHANNELS 6 Xposition Yposition Zposition Zrotation Xrotation Yrotation 
						JOINT LowerArm_R
						{
							OFFSET -24.3289 0.000322201 0.0
							CHANNELS 6 Xposition Yposition Zposition Zrotation Xrotation Yrotation 
							JOINT Hand_R
							{
								OFFSET -22.2915 -0.000108084 0.0
								CHANNELS 6 Xposition Yposition Zposition Zrotation Xrotation Yrotation 
								End Site
								{
									OFFSET 0.0 0.0 0.0
								}
							}
						}
					}
				}
			}
		}
		JOINT UpperLeg_L
		{
			OFFSET -2.19248 -6.46944 0.0
			CHANNELS 6 Xposition Yposition Zposition Zrotation Xrotation Yrotation 
			JOINT LowerLeg_L
			{
				OFFSET 39.0811 0.0 -1.23785e-05
				CHANNELS 6 Xposition Yposition Zposition Zrotation Xrotation Yrotation 
				JOINT Foot_L
				{
					OFFSET 40.9854 0.0 -1.26872e-05
					CHANNELS 6 Xposition Yposition Zposition Zrotation Xrotation Yrotation 
					JOINT Toes_L
					{
						OFFSET 11.7543 0.0 0.0
						CHANNELS 6 Xposition Yposition Zposition Zrotation Xrotation Yrotation 
						End Site
						{
							OFFSET 0.0 0.0 0.0
						}
					}
				}
			}
		}
		JOINT UpperLeg_R
		{
			OFFSET -2.19251 6.46944 0.0
			CHANNELS 6 Xposition Yposition Zposition Zrotation Xrotation Yrotation 
			JOINT LowerLeg_R
			{
				OFFSET -39.0811 -0.00228153 -0.0401928
				CHANNELS 6 Xposition Yposition Zposition Zrotation Xrotation Yrotation 
				JOINT Foot_R
				{
					OFFSET -40.9854 0.0 0.0
					CHANNELS 6 Xposition Yposition Zposition Zrotation Xrotation Yrotation 
					JOINT Toes_R
					{
						OFFSET -11.7543 0.0 0.0
						CHANNELS 6 Xposition Yposition Zposition Zrotation Xrotation Yrotation 
						End Site
						{
							OFFSET 0.0 0.0 0.0
						}
					}
				}
			}
		}
	}
}
MOTION
Frames:	8
Frame Time:	0.0333333
0.000000 0.000000 0.000000 0.000000 0.000000 -0.000000 -1.028110 92.596400 1.873080 88.891100 -0.006283 1.347450 15.735700 0.000005 -0.000001 71.994700 88.168000 -72.022700 8.984550 -0.406207 -0.000000 -4.282110 -1.128770 -0.098343 16.377300 -0.000001 -0.000001 2.559740 -2.651450 2.150020 6.456720 -0.000001 -0.000000 -3.481500 -1.319450 2.658280 12.994200 -0.242716 4.980390 -83.684900 -11.425300 -60.808900 5.348090 -0.000007 -0.000001 -68.547500 -62.057400 -116.522000 24.328600 0.000019 0.000005 5.496540 6.238850 -41.524200 22.291600 -0.000001 0.000005 10.776100 5.380660 -2.318970 12.994500 -0.242716 -4.980390 94.785100 -11.234100 -66.747700 -5.348130 -0.000001 -0.000004 -49.906400 -66.821200 -98.169900 -24.328900 0.000322 -0.000009 -3.905780 -4.932070 -38.445900 -22.291500 -0.000108 -0.000004 17.127600 5.503790 -6.686550 -2.192480 -6.469440 -0.000000 -175.034000 -12.886800 -1.993100 39.081100 -0.000007 -0.000012 -0.090918 0.271347 18.524000 40.985400 -0.000006 -0.000013 -0.129986 9.643550 -65.108100 11.754300 -0.000000 0.000003 -0.000137 -0.001348 -16.628900 -2.192510 6.469440 -0.000001 176.662000 27.415200 -179.945000 -39.081100 -0.002282 -0.040193 0.004967 -0.005278 17.272100 -40.985400 0.000008 0.000006 6.210400 18.165100 -66.625200 -11.754300 -0.000006 -0.000006 -0.000946 -0.014639 -17.168500
0.000000 0.000000 0.000000 0.000000 0.000000 -0.000000 -1.054630 92.595800 1.921560 88.868400 -0.076428 1.367660 15.735700 0.000005 -0.000001 72.380500 88.150800 -72.431200 8.984550 -0.406207 -0.000000 -4.242100 -1.113320 -0.142681 16.377300 -0.000001 -0.000001 2.696110 -2.635190 2.161790 6.456720 -0.000001 -0.000000 -3.337610 -1.314140 2.575870 12.994200 -0.242716 4.980390 -83.698500 -11.333700 -60.668200 5.348090 -0.000007 -0.000001 -68.312700 -62.284400 -116.710000 24.328600 0.000019 0.000005 5.205130 5.752950 -42.265000 22.291600 -0.000001 0.000005 11.080100 5.389920 -2.611850 12.994500 -0.242716 -4.980390 94.780400 -11.183100 -66.674600 -5.348130 -0.000001 -0.000004 -50.075700 -66.817800 -98.551400 -24.328900 0.000322 -0.000009 -3.820650 -4.848670 -38.303800 -22.291500 -0.000108 -0.000004 16.853900 5.499490 -6.512470 -2.192480 -6.469440 -0.000000 -174.992000 -12.839000 -1.911250 39.081100 -0.000007 -0.000012 -0.090641 0.271037 18.491100 40.985400 -0.000006 -0.000013 -0.167912 9.546330 -65.128800 11.754300 -0.000000 0.000003 -0.000162 -0.001547 -16.636300 -2.192510 6.469440 -0.000001 176.680000 27.371600 -179.902000 -39.081100 -0.002282 -0.040193 0.004672 -0.004326 17.275400 -40.985400 0.000008 0.000006 6.177800 18.193500 -66.596700 -11.754300 -0.000006 -0.000006 -0.000717 -0.011303 -17.033000
0.000000 0.000000 0.000000 0.000000 0.000000 -0.000000 -1.088440 92.585500 1.977560 88.871700 -0.156443 1.426830 15.735700 0.000005 -0.000001 73.103200 88.132000 -73.203300 8.984550 -0.406207 -0.000000 -4.192720 -1.074600 -0.239717 16.377300 -0.000001 -0.000001 2.874330 -2.638210 2.151600 6.456720 -0.000001 -0.000000 -3.234000 -1.324540 2.521170 12.994200 -0.242716 4.980390 -83.738000 -11.188100 -60.510400 5.348090 -0.000007 -0.000001 -67.779000 -62.291000 -116.442000 24.328600 0.000019 0.000005 4.559240 4.882760 -43.133300 22.291600 -0.000001 0.000005 11.577400 5.398830 -2.899370 12.994500 -0.242716 -4.980390 94.723900 -11.034500 -66.648200 -5.348130 -0.000001 -0.000004 -49.903500 -66.627600 -98.199700 -24.328900 0.000322 -0.000009 -3.886910 -4.853560 -38.757400 -22.291500 -0.000108 -0.000004 16.906700 5.495360 -6.347400 -2.192480 -6.469440 -0.000000 -174.945000 -12.912900 -1.802400 39.081100 -0.000007 -0.000012 -0.090936 0.271671 18.506800 40.985400 -0.000006 -0.000013 -0.197910 9.528060 -65.177600 11.754300 -0.000000 0.000003 -0.000153 -0.001476 -16.633600 -2.192510 6.469440 -0.000001 176.643000 27.410300 -179.798000 -39.081100 -0.002282 -0.040193 0.004798 -0.004728 17.295200 -40.985400 0.000008 0.000006 6.303940 18.287900 -66.725300 -11.754300 -0.000006 -0.000006 -0.000718 -0.011319 -17.033600
0.000000 0.000000 0.000000 0.000000 0.000000 -0.000000 -1.121610 92.580700 2.036730 88.901100 -0.269037 1.520520 15.735700 0.000005 -0.000001 73.900700 88.108500 -74.055800 8.984550 -0.406207 -0.000000 -4.133210 -1.032160 -0.347611 16.377300 -0.000001 -0.000001 3.040070 -2.590100 2.105530 6.456720 -0.000001 -0.000000 -3.197750 -1.300810 2.485850 12.994200 -0.242716 4.980390 -83.820500 -10.958600 -60.335800 5.348090 -0.000007 -0.000001 -67.108000 -61.897100 -115.501000 24.328600 0.000019 0.000005 4.044430 4.091750 -44.741000 22.291600 -0.000001 0.000005 12.207600 5.404580 -3.086800 12.994500 -0.242716 -4.980390 94.643500 -10.853000 -66.666000 -5.348130 -0.000001 -0.000004 -49.052400 -66.171700 -96.593800 -24.328900 0.000322 -0.000009 -4.338930 -5.156680 -40.161900 -22.291500 -0.000108 -0.000004 17.422000 5.497550 -6.434990 -2.192480 -6.469440 -0.000000 -174.893000 -13.107200 -1.601170 39.081100 -0.000007 -0.000012 -0.092718 0.278155 18.435000 40.985400 -0.000006 -0.000013 -0.214946 9.646240 -65.190000 11.754300 -0.000000 0.000003 -0.000157 -0.001508 -16.634800 -2.192510 6.469440 -0.000001 176.552000 27.339500 -179.662000 -39.081100 -0.002282 -0.040193 0.004255 -0.002978 17.312800 -40.985400 0.000008 0.000006 6.226620 18.378600 -66.737100 -11.754300 -0.000006 -0.000006 -0.000689 -0.010881 -17.015800
0.000000 0.000000 0.000000 0.000000 0.000000 -0.000000 -1.163770 92.560500 2.064250 88.929400 -0.364893 1.572830 15.735700 0.000005 -0.000001 74.029400 88.075500 -74.235600 8.984550 -0.406207 -0.000000 -4.067780 -1.037000 -0.449411 16.377300 -0.000001 -0.000001 3.101190 -2.531500 2.054140 6.456720 -0.000001 -0.000000 -3.166290 -1.259410 2.415400 12.994200 -0.242716 4.980390 -83.958200 -10.638000 -60.172200 5.348090 -0.000007 -0.000001 -66.003800 -61.240700 -113.287000 24.328600 0.000019 0.000005 3.500000 3.182930 -47.771700 22.291600 -0.000001 0.000005 13.152000 5.401890 -2.999080 12.994500 -0.242716 -4.980390 94.507700 -10.577500 -66.757500 -5.348130 -0.000001 -0.000004 -47.366600 -65.394300 -93.497900 -24.328900 0.000322 -0.000009 -5.098650 -5.513890 -42.869600 -22.291500 -0.000108 -0.000004 18.463600 5.500660 -6.558460 -2.192480 -6.469440 -0.000000 -174.868000 -13.225300 -1.564950 39.081100 -0.000007 -0.000012 -0.093293 0.278179 18.540000 40.985400 -0.000006 -0.000013 -0.226484 9.689880 -65.262200 11.754300 -0.000000 0.000003 -0.000165 -0.001573 -16.637200 -2.192510 6.469440 -0.000001 176.521000 27.267400 -179.663000 -39.081100 -0.002282 -0.040193 0.004431 -0.003515 17.457200 -40.985400 0.000008 0.000006 6.334330 18.370500 -66.905200 -11.754300 -0.000006 -0.000006 -0.000766 -0.012032 -17.062600
0.000000 0.000000 0.000000 0.000000 0.000000 -0.000000 -1.190950 92.557700 2.063340 88.933600 -0.417617 1.641180 15.735700 0.000005 -0.000001 74.023300 88.033800 -74.259400 8.984550 -0.406207 -0.000000 -3.987930 -1.057470 -0.509253 16.377300 -0.000001 -0.000001 3.250090 -2.485420 1.934030 6.456720 -0.000001 -0.000000 -3.227900 -1.221660 2.375690 12.994200 -0.242716 4.980390 -84.207900 -10.262200 -60.343600 5.348090 -0.000007 -0.000001 -63.621500 -60.498400 -108.761000 24.328600 0.000019 0.000005 2.347760 1.793680 -52.662600 22.291600 -0.000001 0.000005 14.650200 5.407150 -3.171010 12.994500 -0.242716 -4.980390 94.315600 -10.226600 -66.971800 -5.348130 -0.000001 -0.000004 -44.923100 -64.132400 -88.801300 -24.328900 0.000322 -0.000009 -6.160050 -5.721610 -47.263600 -22.291500 -0.000108 -0.000004 19.575300 5.505300 -6.747900 -2.192480 -6.469440 -0.000000 -174.839000 -13.220100 -1.475870 39.081100 -0.000007 -0.000012 -0.094126 0.280757 18.534100 40.985400 -0.000006 -0.000013 -0.258664 9.625350 -65.266700 11.754300 -0.000000 0.000003 -0.000182 -0.001714 -16.642400 -2.192510 6.469440 -0.000001 176.494000 27.246900 -179.584000 -39.081100 -0.002282 -0.040193 0.004163 -0.002663 17.453600 -40.985400 0.000008 0.000006 6.305230 18.420100 -66.913300 -11.754300 -0.000006 -0.000006 -0.000625 -0.009925 -16.977000
0.000000 0.000000 0.000000 0.000000 0.000000 -0.000000 -1.216810 92.539800 2.058590 88.929300 -0.443648 1.824900 15.735700 0.000005 -0.000001 74.516900 87.956800 -74.758700 8.984550 -0.406207 -0.000000 -3.830470 -1.065740 -0.519486 16.377300 -0.000001 -0.000001 3.371640 -2.389530 1.738270 6.456720 -0.000001 -0.000000 -3.222210 -1.214100 2.291190 12.994200 -0.242716 4.980390 -84.534800 -9.884670 -60.867200 5.348090 -0.000007 -0.000001 -60.165600 -59.301400 -101.885000 24.328600 0.000019 0.000005 0.658324 0.389347 -59.507300 22.291600 -0.000001 0.000005 16.467400 5.411720 -3.323030 12.994500 -0.242716 -4.980390 94.061200 -9.809700 -67.377500 -5.348130 -0.000001 -0.000004 -41.968200 -62.291700 -82.844700 -24.328900 0.000322 -0.000009 -7.266790 -5.502160 -53.052300 -22.291500 -0.000108 -0.000004 20.383500 5.510960 -6.980870 -2.192480 -6.469440 -0.000000 -174.777000 -13.167500 -1.367600 39.081100 -0.000007 -0.000012 -0.095359 0.281931 18.687300 40.985400 -0.000006 -0.000013 -0.278529 9.563480 -65.336000 11.754300 -0.000000 0.000003 -0.000171 -0.001625 -16.639100 -2.192510 6.469440 -0.000001 176.392000 27.346100 -179.366000 -39.081100 -0.002282 -0.040193 0.004019 -0.002202 17.479700 -40.985400 0.000008 0.000006 6.406780 18.555500 -67.070600 -11.754300 -0.000006 -0.000006 -0.000543 -0.008691 -16.926900
0.000000 0.000000 0.000000 0.000000 0.000000 -0.000000 -1.229070 92.514400 2.008240 88.923600 -0.586292 2.001420 15.735700 0.000005 -0.000001 75.412700 87.881800 -75.653700 8.984550 -0.406207 -0.000000 -3.668690 -1.042290 -0.515486 16.377300 -0.000001 -0.000001 3.478640 -2.258310 1.632630 6.456720 -0.000001 -0.000000 -3.194230 -1.205880 2.217000 12.994200 -0.242716 4.980390 -85.011300 -9.217340 -61.412300 5.348090 -0.000007 -0.000001 -56.157400 -57.099500 -93.728900 24.328600 0.000019 0.000005 -1.077410 -0.442314 -67.632500 22.291600 -0.000001 0.000005 17.812700 5.416730 -3.489180 12.994500 -0.242716 -4.980390 93.620200 -8.920930 -67.804900 -5.348130 -0.000001 -0.000004 -39.119900 -59.389000 -76.808500 -24.328900 0.000322 -0.000009 -8.303940 -4.919850 -59.554200 -22.291500 -0.000108 -0.000004 21.093100 5.516140 -7.198190 -2.192480 -6.469440 -0.000000 -174.721000 -13.249600 -1.315390 39.081100 -0.000007 -0.000012 -0.097307 0.283730 18.929800 40.985400 -0.000006 -0.000013 -0.264939 9.558080 -65.440400 11.754300 -0.000000 0.000003 -0.000183 -0.001720 -16.642600 -2.192510 6.469440 -0.000001 176.345000 27.253900 -179.307000 -39.081100 -0.002282 -0.040193 0.004170 -0.002653 17.662300 -40.985400 0.000008 0.000006 6.490000 18.535000 -67.223000 -11.754300 -0.000006 -0.000006 -0.000667 -0.010551 -17.002400
